<?xml version="1.0" standalone="no"?>
<!DOCTYPE svg PUBLIC "-//W3C//DTD SVG 20010904//EN"
 "http://www.w3.org/TR/2001/REC-SVG-20010904/DTD/svg10.dtd">
<svg version="1.0" xmlns="http://www.w3.org/2000/svg"
 width="577.000000pt" height="577.000000pt" viewBox="0 0 577.000000 577.000000"
 preserveAspectRatio="xMidYMid meet">
<metadata>
Created by potrace 1.14, written by Peter Selinger 2001-2017
</metadata>
<g transform="translate(0.000000,577.000000) scale(0.100000,-0.100000)"
fill="#000000" stroke="none">
<path d="M2548 4264 c-2 -1 -35 -4 -74 -7 -87 -5 -100 -12 -192 -101 -102 -98
-111 -115 -118 -224 l-5 -90 428 -429 c235 -235 442 -438 460 -451 30 -21 213
-76 297 -88 29 -5 37 -3 31 6 -5 9 -4 11 4 6 6 -4 9 -11 6 -15 -6 -10 53 -23
66 -15 5 3 9 1 9 -3 0 -5 26 -14 57 -22 55 -13 58 -12 76 10 22 27 21 34 -30
233 -14 55 -27 110 -29 121 -7 53 -38 153 -54 175 -17 24 -487 494 -767 767
-114 111 -152 140 -165 127z m19 -117 c-5 -80 -14 -97 -102 -184 -89 -87 -118
-103 -189 -103 l-56 0 5 68 c8 93 9 97 80 166 101 98 96 96 171 102 38 4 71 8
73 10 16 14 21 -4 18 -59z m443 -387 l411 -404 -7 -56 c-3 -30 -8 -57 -10 -58
-1 -2 -109 101 -238 230 -208 205 -266 256 -266 233 0 -3 110 -115 245 -248
135 -133 245 -248 245 -254 0 -6 -8 -14 -17 -17 -23 -7 -103 -83 -126 -119
-10 -16 -22 -27 -27 -25 -5 2 -178 171 -384 376 -206 204 -380 372 -386 372
-5 0 -10 -4 -10 -8 0 -4 167 -173 370 -374 322 -318 396 -396 362 -374 -4 2
-30 0 -57 -5 l-50 -9 -402 402 c-222 222 -403 405 -403 408 0 3 21 6 46 8 63
4 87 18 173 104 104 103 107 109 110 202 1 16 3 27 5 25 3 -2 190 -186 416
-409z m470 -597 c19 -76 33 -147 32 -157 -1 -25 -61 -86 -84 -86 -10 0 -73 13
-141 29 -67 16 -138 32 -157 36 -29 7 -32 9 -15 15 11 4 41 6 66 4 46 -4 46
-4 92 56 26 33 66 73 89 90 74 53 74 53 72 103 -1 26 1 47 5 47 4 0 22 -62 41
-137z"/>
<path d="M2372 4117 c-62 -46 -86 -96 -67 -139 25 -58 165 37 167 113 2 53
-47 65 -100 26z m73 -36 c-12 -48 -87 -109 -114 -92 -29 18 19 93 74 116 38
17 48 10 40 -24z"/>
<path d="M1401 2586 c-12 -16 -62 -188 -86 -301 -3 -11 -11 -45 -19 -75 -8
-30 -12 -58 -10 -62 3 -5 -2 -9 -10 -9 -9 -1 -22 -2 -28 -3 -8 -1 -14 -19 -16
-47 l-3 -46 88 1 88 1 3 43 c4 51 -16 64 -48 32 -12 -12 -25 -19 -28 -15 -4 3
0 10 8 16 12 7 12 11 2 17 -7 5 -10 16 -6 25 9 24 24 21 19 -3 -2 -11 1 -20 7
-20 5 0 12 9 15 20 5 20 15 23 63 22 66 -1 70 -2 70 -22 0 -11 -6 -20 -14 -20
-7 0 -14 -10 -14 -22 0 -13 -1 -27 -2 -33 -8 -36 -1 -40 85 -40 l85 -1 0 48
c0 41 -3 48 -20 48 -11 0 -20 3 -21 8 0 4 -2 15 -5 25 -2 9 -6 25 -8 35 -3 9
-5 19 -6 22 -1 3 -2 8 -1 12 0 4 -6 25 -14 45 -14 36 -45 153 -67 256 -6 26
-13 47 -17 48 -41 6 -83 4 -90 -5z m34 -69 c4 -21 2 -37 -3 -37 -11 0 -23 60
-15 73 8 13 12 4 18 -36z m20 -148 c2 -9 8 -33 13 -53 11 -40 8 -45 -28 -41
-16 1 -24 8 -22 16 18 68 19 93 9 149 -6 29 -4 27 9 -10 8 -25 17 -52 19 -61z
m-64 -52 c-10 -9 -11 -8 -5 6 3 10 9 15 12 12 3 -3 0 -11 -7 -18z m12 -50 c-2
-4 -3 -15 -3 -25 0 -10 -7 -27 -16 -38 -8 -10 -13 -13 -9 -6 3 6 1 12 -5 12
-7 0 -5 7 4 16 20 19 20 28 2 21 -11 -5 -15 12 -7 30 3 5 36 -5 34 -10z m117
-50 c0 -7 -4 -6 -10 3 -8 13 -10 12 -10 -4 0 -11 -3 -17 -6 -13 -4 3 -4 13 0
22 6 18 26 11 26 -8z m34 -83 c9 -3 14 -10 11 -15 -7 -10 -35 0 -35 12 0 11 3
11 24 3z m-234 -55 c12 -8 9 -9 -12 -5 -15 3 -30 1 -33 -4 -4 -6 -11 -7 -18
-3 -7 4 -4 9 9 14 27 11 37 10 54 -2z m50 -9 c0 -5 -4 -10 -9 -10 -6 0 -13 5
-16 10 -3 6 1 10 9 10 9 0 16 -4 16 -10z"/>
<path d="M1674 2574 c-9 -36 0 -79 16 -79 12 0 15 -19 15 -112 0 -62 2 -113 5
-113 4 0 4 -57 0 -70 -1 -3 -1 -20 0 -38 1 -27 -2 -33 -17 -30 -15 3 -18 -4
-18 -42 l0 -45 168 0 c93 0 170 2 172 5 5 9 -11 32 -21 30 -5 -1 -10 4 -12 10
-3 8 2 10 14 6 17 -5 19 0 19 46 -1 51 -1 52 -30 51 -64 -2 -65 -2 -65 -32 0
-28 -1 -28 -57 -27 l-58 1 -5 48 c-4 26 -4 50 -1 52 2 3 4 59 3 124 -1 94 1
121 13 131 9 8 15 30 15 59 l0 46 -75 0 c-69 0 -76 -2 -81 -21z m56 -44 c0 -5
-8 -10 -17 -10 -15 0 -16 2 -3 10 19 12 20 12 20 0z m73 -13 c4 3 7 4 7 1 0
-3 -6 -11 -14 -17 -11 -9 -15 -7 -19 9 -4 16 -2 19 7 11 7 -6 16 -8 19 -4z
m-35 -222 c-3 -3 -9 2 -12 12 -6 14 -5 15 5 6 7 -7 10 -15 7 -18z m16 -23 c3
-5 -1 -9 -9 -9 -8 0 -12 4 -9 9 3 4 7 8 9 8 2 0 6 -4 9 -8z m-13 -39 c13 -16
12 -17 -3 -4 -10 7 -18 15 -18 17 0 8 8 3 21 -13z m-1 -93 c0 -5 -2 -10 -4
-10 -3 0 -8 5 -11 10 -3 6 -1 10 4 10 6 0 11 -4 11 -10z m221 -23 c-10 -9 -11
-8 -5 6 3 10 9 15 12 12 3 -3 0 -11 -7 -18z m-271 -41 c0 -3 -4 -8 -10 -11 -5
-3 -10 -1 -10 4 0 6 5 11 10 11 6 0 10 -2 10 -4z m210 -12 c0 -2 -9 -4 -20 -4
-11 0 -20 4 -20 9 0 5 9 7 20 4 11 -3 20 -7 20 -9z"/>
<path d="M2078 2592 c-28 -3 -28 -3 -28 -85 l0 -83 40 3 c52 3 61 9 54 38 -6
24 13 45 25 27 4 -6 6 -89 6 -184 0 -153 -2 -173 -16 -170 -18 3 -29 -33 -22
-71 4 -21 9 -22 81 -22 l77 0 6 37 c6 41 -1 61 -21 56 -11 -2 -13 31 -12 176
2 122 -1 183 -9 192 -7 9 -8 14 -1 14 5 0 13 -7 16 -16 3 -8 10 -13 15 -10 11
7 22 -20 15 -38 -7 -18 9 -28 47 -30 42 -3 50 13 47 90 -3 68 -3 68 -35 75
-17 3 -37 3 -44 -2 -7 -4 -18 -5 -23 -2 -15 10 -156 9 -156 0 0 -4 -8 -4 -17
1 -10 4 -30 6 -45 4z m72 -73 c0 -5 -4 -7 -10 -4 -5 3 -12 -6 -16 -21 -5 -19
-9 -22 -15 -12 -16 25 -10 44 16 46 14 1 25 -3 25 -9z m180 -24 c0 -8 -2 -15
-4 -15 -2 0 -6 7 -10 15 -3 8 -1 15 4 15 6 0 10 -7 10 -15z m-105 -365 c3 -6
-4 -10 -17 -10 -18 0 -20 2 -8 10 19 12 18 12 25 0z m52 -62 c-3 -8 -6 -5 -6
6 -1 11 2 17 5 13 3 -3 4 -12 1 -19z"/>
<path d="M2478 2592 l-48 -3 0 -44 c0 -38 3 -44 22 -47 23 -3 23 -4 23 -184 0
-185 6 -214 41 -214 7 0 16 -5 20 -12 4 -7 3 -8 -4 -4 -19 11 -14 -8 6 -25 27
-23 176 -20 199 5 10 10 13 16 6 12 -16 -9 -28 13 -14 27 9 9 11 8 6 -4 -9
-23 25 -20 52 5 22 20 23 29 25 204 3 179 3 183 25 188 19 5 21 11 18 46 -3
23 -6 43 -9 45 -4 4 -103 7 -147 4 -33 -2 -28 -101 5 -101 12 0 14 -28 15
-165 0 -187 1 -185 -85 -188 -64 -3 -69 14 -68 204 0 153 1 154 23 153 20 -1
22 3 19 49 l-3 50 -40 1 c-22 1 -61 0 -87 -2z m17 -62 c3 -5 1 -10 -4 -10 -6
0 -11 5 -11 10 0 6 2 10 4 10 3 0 8 -4 11 -10z m57 -38 c-6 -14 -7 -13 -10 6
-2 12 -8 20 -13 17 -11 -7 -12 8 -2 19 12 11 32 -24 25 -42z m233 38 c3 -5 1
-10 -4 -10 -6 0 -11 5 -11 10 0 6 2 10 4 10 3 0 8 -4 11 -10z m20 -30 c-4 -12
-9 -19 -12 -17 -3 3 -2 15 2 27 4 12 9 19 12 17 3 -3 2 -15 -2 -27z m-85 10
c0 -5 -2 -10 -4 -10 -3 0 -8 5 -11 10 -3 6 -1 10 4 10 6 0 11 -4 11 -10z m65
-188 c-3 -3 -11 0 -18 7 -9 10 -8 11 6 5 10 -3 15 -9 12 -12z m5 -33 c0 -5 -4
-9 -8 -9 -5 0 -9 7 -9 15 0 8 4 12 9 9 4 -3 8 -9 8 -15z m-5 -39 c3 -5 1 -10
-4 -10 -6 0 -11 5 -11 10 0 6 2 10 4 10 3 0 8 -4 11 -10z m-1 -57 c-7 -39 -13
-41 -12 -4 1 17 5 31 9 31 4 0 5 -12 3 -27z m-9 -72 c-8 -14 -25 -14 -25 0 0
5 5 7 10 4 6 -3 10 -1 10 6 0 7 3 10 6 6 3 -3 3 -10 -1 -16z m-84 -45 c5 3 9
0 9 -6 0 -15 -23 -7 -26 8 -1 7 0 8 3 2 2 -5 9 -8 14 -4z"/>
<path d="M3085 2591 l-30 -6 0 -80 0 -79 28 1 c65 2 64 2 63 36 -1 22 4 32 14
32 13 0 15 -27 15 -180 0 -165 -2 -180 -18 -177 -17 3 -19 -3 -19 -53 0 -14 0
-28 1 -33 1 -4 36 -7 78 -7 l77 0 7 35 c8 35 -1 55 -23 55 -8 0 -11 31 -10 95
1 52 2 132 3 177 1 60 5 83 15 87 14 5 18 -5 15 -32 -4 -25 17 -38 58 -34 l40
4 -2 75 c0 43 -5 77 -11 79 -23 8 -76 11 -76 4 0 -4 -15 -5 -32 -1 -38 8 -110
6 -133 -2 -8 -4 -15 -2 -15 3 0 11 0 11 -45 1z m140 -69 c-3 -3 -11 0 -18 7
-9 10 -8 11 6 5 10 -3 15 -9 12 -12z m-72 1 c-13 -2 -24 -15 -28 -31 -5 -20
-8 -23 -16 -11 -19 30 -10 45 29 46 20 0 27 -1 15 -4z m109 -25 c-7 -7 -10 -5
-7 8 5 29 6 30 12 16 3 -8 1 -18 -5 -24z m68 -3 c0 -8 -2 -15 -4 -15 -2 0 -6
7 -10 15 -3 8 -1 15 4 15 6 0 10 -7 10 -15z m-107 -372 c-7 -2 -19 -2 -25 0
-7 3 -2 5 12 5 14 0 19 -2 13 -5z m54 -39 c-3 -3 -12 -4 -19 -1 -8 3 -5 6 6 6
11 1 17 -2 13 -5z"/>
<path d="M3504 2579 c-8 -9 -11 -19 -7 -24 5 -4 3 -5 -3 -2 -6 3 -16 -3 -24
-13 -8 -10 -17 -17 -22 -14 -11 7 -11 6 -13 -206 -2 -169 -1 -187 16 -203 11
-10 19 -23 19 -28 0 -6 7 -9 15 -6 8 4 17 2 20 -3 4 -6 1 -10 -5 -10 -7 0 -6
-5 2 -14 13 -13 32 -15 43 -4 3 3 20 3 38 -1 58 -13 106 -5 132 21 25 25 20
57 -6 44 -8 -4 -5 1 7 11 12 11 19 29 19 46 -1 15 2 27 6 27 5 0 7 -20 4 -45
-4 -43 7 -61 18 -31 3 8 6 100 7 205 0 164 -2 191 -15 191 -8 0 -15 5 -15 11
0 5 -4 7 -10 4 -6 -4 -7 1 -3 11 5 13 3 16 -10 11 -12 -4 -14 -2 -10 10 4 11
2 14 -5 9 -7 -4 -12 -2 -12 6 0 21 -167 18 -186 -3z m8 -114 c-2 -19 -8 -37
-12 -40 -4 -2 -5 8 -3 23 10 59 21 73 15 17z m154 14 c17 -14 14 -300 -4 -322
-7 -8 -32 -15 -61 -16 -73 -2 -76 5 -74 176 2 172 7 182 80 177 25 -2 52 -9
59 -15z m78 -164 c3 -8 1 -15 -4 -15 -6 0 -10 7 -10 15 0 8 2 15 4 15 2 0 6
-7 10 -15z m2 -102 c-4 -4 -12 -1 -19 7 -9 10 -9 11 1 6 7 -4 12 -2 13 6 0 11
2 11 6 0 3 -7 2 -16 -1 -19z m-79 -135 c2 -15 -1 -18 -6 -10 -8 14 -32 13 -42
-1 -3 -5 -9 -2 -12 6 -4 11 -1 15 12 12 10 -2 24 1 32 6 8 5 14 9 14 9 1 0 2
-10 2 -22z m38 12 c-3 -5 -10 -10 -16 -10 -5 0 -9 5 -9 10 0 6 7 10 16 10 8 0
12 -4 9 -10z"/>
<path d="M4274 2580 c-4 -8 -6 -19 -5 -25 2 -5 0 -7 -4 -3 -4 3 -20 -5 -36
-19 l-29 -26 1 -185 c0 -172 1 -186 21 -213 12 -16 31 -29 42 -29 13 0 17 -3
10 -8 -26 -16 14 -27 96 -27 77 0 87 2 110 24 14 14 24 31 22 38 -2 7 3 10 11
7 8 -3 17 1 19 8 4 11 4 381 0 400 -1 4 -10 5 -19 1 -10 -3 -15 -3 -11 1 4 5
-4 19 -18 33 -13 13 -24 27 -24 31 0 4 -40 7 -90 7 -70 0 -91 -3 -96 -15z m56
-60 c0 -5 -5 -10 -11 -10 -5 0 -7 5 -4 10 3 6 8 10 11 10 2 0 4 -4 4 -10z m97
-38 c20 -11 21 -17 18 -163 -3 -135 -6 -154 -22 -163 -24 -15 -83 -17 -110 -4
-20 10 -21 15 -17 164 2 103 7 158 16 167 14 16 85 15 115 -1z m-147 -17 c0
-8 -4 -15 -8 -15 -5 0 -9 7 -9 15 0 8 4 15 9 15 4 0 8 -7 8 -15z m240 -49 c0
-3 -4 -8 -10 -11 -5 -3 -10 -1 -10 4 0 6 5 11 10 11 6 0 10 -2 10 -4z m-255
-16 c-3 -5 -1 -10 6 -10 7 0 10 -3 6 -6 -9 -9 -28 6 -22 17 4 5 8 9 11 9 3 0
2 -4 -1 -10z m12 -46 c-3 -3 -12 -4 -19 -1 -8 3 -5 6 6 6 11 1 17 -2 13 -5z
m-7 -24 c0 -5 -2 -10 -4 -10 -3 0 -8 5 -11 10 -3 6 -1 10 4 10 6 0 11 -4 11
-10z m245 -9 c3 -5 1 -12 -5 -16 -5 -3 -10 1 -10 9 0 18 6 21 15 7z m-8 -53
c-3 -8 -6 -5 -6 6 -1 11 2 17 5 13 3 -3 4 -12 1 -19z m-237 8 c0 -3 -4 -8 -10
-11 -5 -3 -10 -1 -10 4 0 6 5 11 10 11 6 0 10 -2 10 -4z m247 -86 c0 -43 -4
-52 -26 -66 l-26 -15 22 19 c16 15 21 28 19 65 -1 26 1 47 5 47 4 0 7 -22 6
-50z m-47 -100 c0 -5 -4 -10 -10 -10 -5 0 -10 5 -10 10 0 6 5 10 10 10 6 0 10
-4 10 -10z"/>
<path d="M3805 2580 c-8 -13 -3 -80 7 -81 4 -1 13 -2 20 -3 9 -1 12 -44 13
-161 1 -161 -2 -194 -19 -194 -25 1 -36 -73 -13 -88 6 -4 68 -8 137 -8 l125
-1 46 44 46 43 0 186 1 185 -29 31 c-16 16 -29 26 -30 21 0 -5 -4 1 -9 14 -9
21 -14 22 -149 22 -79 0 -142 -4 -146 -10z m115 -75 c0 -14 -63 -12 -67 2 -2
6 10 10 32 9 19 0 35 -6 35 -11z m135 -25 c9 -8 12 -51 12 -161 0 -176 -2
-181 -77 -181 -59 0 -55 -13 -55 180 l0 178 54 -3 c29 -1 59 -7 66 -13z m95
-120 c0 -5 -2 -10 -4 -10 -3 0 -8 5 -11 10 -3 6 -1 10 4 10 6 0 11 -4 11 -10z
m-244 -178 c-11 -10 -14 3 -7 38 l6 35 3 -33 c2 -19 1 -36 -2 -40z m232 -25
c-1 -13 -9 -30 -17 -37 -13 -13 -14 -12 -7 5 5 11 11 28 13 38 7 24 13 21 11
-6z m-224 -2 c3 -8 1 -15 -4 -15 -6 0 -10 7 -10 15 0 8 2 15 4 15 2 0 6 -7 10
-15z m152 -80 c-23 -17 -36 -19 -36 -6 0 5 10 12 23 14 12 2 24 5 27 5 3 1 -4
-5 -14 -13z m-179 -1 c-3 -3 -12 -4 -19 -1 -8 3 -5 6 6 6 11 1 17 -2 13 -5z"/>
<path d="M984 1851 c-2 -2 -4 -17 -4 -33 0 -26 3 -28 39 -28 l40 0 -1 -129 c0
-71 3 -134 7 -140 3 -6 20 -10 36 -9 33 3 31 -8 31 172 l-1 108 25 -5 c33 -6
57 14 52 43 -3 25 -4 25 -111 25 -60 0 -111 -2 -113 -4z"/>
<path d="M2294 1848 c-3 -4 21 -54 52 -110 51 -91 57 -108 58 -162 l1 -60 33
-3 c35 -3 33 -8 36 87 0 25 8 56 17 70 41 64 99 173 95 179 -3 4 -19 6 -37 6
-30 -1 -35 -6 -68 -72 -20 -39 -38 -72 -41 -72 -3 0 -21 32 -41 71 -33 65 -38
72 -68 73 -18 1 -34 -2 -37 -7z"/>
<path d="M3625 1849 c-37 -10 -89 -63 -102 -104 -30 -90 19 -198 103 -225 96
-32 192 12 218 101 23 76 20 79 -95 79 l-99 0 0 -30 0 -30 65 0 c69 0 78 -7
45 -40 -31 -31 -102 -30 -138 3 -33 30 -44 82 -27 123 26 63 94 84 161 48 32
-17 34 -17 53 0 19 17 19 19 3 37 -40 42 -119 58 -187 38z"/>
<path d="M4505 1851 l-30 -6 0 -147 c0 -124 3 -150 17 -164 20 -20 78 -29 79
-11 0 6 2 20 4 30 2 10 -3 17 -11 17 -16 0 -35 39 -26 54 6 10 6 226 0 230 -1
1 -16 0 -33 -3z"/>
<path d="M1953 1685 c0 -91 3 -166 6 -166 3 -1 17 -2 31 -3 26 -1 27 1 29 59
0 19 5 35 11 35 5 0 23 -21 40 -47 26 -40 37 -48 66 -50 24 -2 34 1 34 11 0 8
-4 17 -9 21 -11 6 -70 92 -74 105 -1 5 12 24 28 42 61 68 61 68 23 68 -27 0
-43 -9 -76 -42 l-42 -41 0 86 0 87 -34 0 -34 0 1 -165z"/>
<path d="M1332 1755 c-19 -9 -32 -10 -32 -4 0 6 -14 9 -31 7 l-32 -3 1 -87 c1
-170 -2 -155 36 -156 l33 -1 2 86 c1 48 5 91 8 96 3 5 20 7 39 5 27 -3 35 0
44 20 6 14 9 26 8 27 -23 19 -47 22 -76 10z"/>
<path d="M1500 1763 c-49 -15 -59 -25 -48 -49 6 -13 15 -21 21 -17 20 12 79
14 92 3 24 -20 18 -25 -35 -26 -50 -1 -81 -18 -99 -54 -14 -27 8 -79 40 -96
29 -15 83 -15 107 0 6 3 13 2 17 -4 3 -5 16 -8 28 -6 21 3 22 8 22 100 -1 89
-3 98 -25 121 -24 24 -87 39 -120 28z m71 -143 c22 0 7 -41 -18 -51 -31 -12
-56 -2 -61 25 -4 17 34 38 56 30 8 -2 18 -4 23 -4z"/>
<path d="M1757 1749 c-74 -38 -91 -146 -33 -205 39 -39 130 -45 166 -11 20 18
20 20 5 37 -13 15 -21 16 -44 7 -66 -25 -113 26 -85 92 14 33 15 33 64 29 39
-4 53 -1 66 13 14 16 14 19 -8 32 -37 24 -90 27 -131 6z"/>
<path d="M2695 1763 c-35 -7 -75 -46 -89 -87 -28 -82 26 -164 110 -168 126 -5
190 135 99 220 -19 17 -43 32 -54 32 -11 0 -25 2 -33 4 -7 2 -22 1 -33 -1z
m79 -85 c22 -31 20 -64 -4 -88 -42 -42 -100 -13 -102 50 -2 58 74 84 106 38z"/>
<path d="M3305 1762 c-11 -2 -25 -8 -32 -14 -7 -6 -14 -5 -18 2 -3 5 -17 10
-31 10 l-24 0 0 -124 0 -124 33 2 32 3 0 79 c1 94 7 107 47 102 21 -4 33 1 44
16 8 11 14 23 14 27 0 11 -44 25 -65 21z"/>
<path d="M3984 1755 c-93 -41 -113 -149 -38 -215 83 -73 213 -14 216 97 3 85
-99 152 -178 118z m90 -71 c35 -35 9 -114 -38 -114 -57 0 -88 69 -49 112 20
22 66 24 87 2z"/>
<path d="M4243 1752 c-28 -15 -30 -19 -18 -35 10 -14 21 -16 54 -11 27 4 46 2
56 -6 25 -20 18 -25 -36 -25 -43 0 -55 -5 -75 -28 -34 -40 -31 -79 7 -112 33
-27 79 -32 107 -11 8 6 17 5 24 -2 7 -7 22 -12 35 -12 22 0 23 2 21 97 -1 88
-3 98 -27 125 -33 36 -99 45 -148 20z m104 -135 c18 -18 9 -37 -23 -47 -39
-13 -64 -2 -60 27 4 25 63 39 83 20z"/>
<path d="M4652 1753 c-70 -34 -53 -121 28 -143 31 -8 40 -15 36 -26 -3 -9 -6
-17 -6 -18 0 -7 -51 7 -56 15 -9 16 -33 10 -44 -12 -9 -17 -8 -23 7 -34 36
-27 68 -33 107 -20 44 15 65 40 62 74 -3 24 -40 71 -56 71 -26 0 -59 21 -54
34 5 12 28 15 59 6 14 -4 45 10 45 21 0 13 -41 37 -71 42 -14 3 -40 -2 -57
-10z"/>
<path d="M2908 1753 c-3 -4 -4 -45 -3 -90 1 -67 5 -88 22 -110 25 -35 75 -50
113 -36 17 6 34 7 44 1 9 -5 25 -7 34 -3 17 5 18 17 16 118 -1 61 -2 115 -3
120 0 4 -16 7 -33 7 l-33 0 0 -88 c1 -90 -4 -102 -41 -102 -37 0 -49 27 -49
109 l0 76 -32 3 c-17 2 -33 -1 -35 -5z"/>
</g>
</svg>
